<?xml version="1.0" encoding="UTF-8"?>
<svg id="Calque_1" xmlns="http://www.w3.org/2000/svg" xmlns:xlink="http://www.w3.org/1999/xlink" version="1.1" viewBox="0 0 140 64">
  <!-- Generator: Adobe Illustrator 29.4.0, SVG Export Plug-In . SVG Version: 2.1.0 Build 152)  -->
  <defs>
    <style>
      .st0 {
        fill: url(#Dégradé_sans_nom_6);
      }

      .st1 {
        fill: url(#Dégradé_sans_nom_5);
      }

      .st2 {
        fill: #1d1d1b;
      }

      .st3 {
        fill: url(#Dégradé_sans_nom_51);
      }
    </style>
    <linearGradient id="Dégradé_sans_nom_5" data-name="Dégradé sans nom 5" x1="60.29" y1="42" x2="60.29" y2="14.67" gradientUnits="userSpaceOnUse">
      <stop offset="0" stop-color="#1d1d1b"/>
      <stop offset=".97" stop-color="#1d1d1b" stop-opacity="0"/>
    </linearGradient>
    <linearGradient id="Dégradé_sans_nom_6" data-name="Dégradé sans nom 6" x1="70" y1="42" x2="70" y2="4.22" gradientUnits="userSpaceOnUse">
      <stop offset="0" stop-color="#1d1d1b"/>
      <stop offset=".97" stop-color="#1d1d1b" stop-opacity="0"/>
    </linearGradient>
    <linearGradient id="Dégradé_sans_nom_51" data-name="Dégradé sans nom 5" x1="79.71" x2="79.71" xlink:href="#Dégradé_sans_nom_5"/>
  </defs>
  <polygon class="st1" points="59.69 14.75 59.69 14.67 59.68 14.67 58.15 14.67 58.15 42 58.31 42 59.69 42 62.43 42 59.69 14.75"/>
  <g>
    <path class="st2" d="M21.07,50.61h3.86v.82h-2.94v2.34h2.77v.81h-2.77v3.49h-.92v-7.46Z"/>
    <path class="st2" d="M27.8,50.61h2.41c1.17,0,1.91.69,1.91,1.87,0,.82-.28,1.67-1.15,1.88v.02c.65.07,1.01.61,1.06,1.24l.06,1.28c.04.83.18,1.03.4,1.17h-1.11c-.16-.16-.23-.71-.25-1.08l-.06-1.16c-.07-1.02-.64-1.09-1.11-1.09h-1.24v3.32h-.92v-7.46ZM28.72,53.99h.91c.54,0,1.54,0,1.54-1.44,0-.73-.49-1.19-1.35-1.19h-1.1v2.63Z"/>
    <path class="st2" d="M36.78,50.61h1.23l2.01,7.46h-.96l-.53-2.05h-2.38l-.55,2.05h-.96l2.15-7.46ZM36.33,55.27h2.01l-.95-3.61h-.02l-1.03,3.61Z"/>
    <path class="st2" d="M42.63,50.61h1.19l2.47,6.23h.02v-6.23h.92v7.46h-1.26l-2.39-6.04h-.02v6.04h-.92v-7.46Z"/>
    <path class="st2" d="M55.1,55.51c-.08,1.41-.64,2.71-2.27,2.71-2.12,0-2.4-2-2.4-3.88s.34-3.88,2.4-3.88c1.53,0,2.16.86,2.21,2.32h-.96c-.02-.85-.29-1.57-1.24-1.57-1.28,0-1.44,1.4-1.44,3.13s.17,3.13,1.44,3.13c1.12,0,1.28-1.04,1.31-1.95h.96Z"/>
    <path class="st2" d="M58.05,50.61h3.86v.82h-2.94v2.34h2.77v.81h-2.77v2.68h3.06v.82h-3.98v-7.46Z"/>
    <path class="st2" d="M69.67,50.61h2c2.32,0,2.61,1.67,2.61,3.73,0,1.88-.47,3.73-2.52,3.73h-2.09v-7.46ZM70.59,57.32h.96c1.59,0,1.77-1.63,1.77-2.97,0-1.44-.09-2.99-1.77-2.99h-.96v5.96Z"/>
    <path class="st2" d="M82.17,54.34c0,1.88-.34,3.88-2.4,3.88s-2.4-2-2.4-3.88.34-3.88,2.4-3.88,2.4,2,2.4,3.88ZM78.33,54.34c0,1.72.17,3.13,1.44,3.13s1.44-1.4,1.44-3.13-.17-3.13-1.44-3.13-1.44,1.4-1.44,3.13Z"/>
    <path class="st2" d="M85.29,50.61h.92v5.25c0,1.1.36,1.61,1.26,1.61.98,0,1.28-.56,1.28-1.61v-5.25h.92v5.25c0,1.43-.73,2.36-2.2,2.36s-2.18-.83-2.18-2.36v-5.25Z"/>
    <path class="st2" d="M96.43,52.68c-.04-.78-.33-1.46-1.24-1.46-1.28,0-1.44,1.4-1.44,3.13s.17,3.13,1.44,3.13,1.37-1.53,1.37-2.52h-1.47v-.75h2.31v3.88h-.69v-1.01h-.02c-.2.64-.79,1.16-1.61,1.16-1.94,0-2.29-1.87-2.29-3.88,0-1.88.34-3.88,2.4-3.88s2.19,1.83,2.21,2.22h-.96Z"/>
    <path class="st2" d="M100.59,50.61h.92v6.65h3.03v.82h-3.95v-7.46Z"/>
    <path class="st2" d="M108.78,50.61h1.23l2.01,7.46h-.96l-.53-2.05h-2.38l-.55,2.05h-.96l2.15-7.46ZM108.33,55.27h2.01l-.95-3.61h-.02l-1.03,3.61Z"/>
    <path class="st2" d="M117.8,52.54c0-.78-.28-1.33-1.16-1.33-.77,0-1.23.42-1.23,1.21,0,2.1,3.52.85,3.52,3.57,0,1.72-1.26,2.22-2.32,2.22-1.75,0-2.26-.9-2.26-2.49h.92c0,.84.05,1.73,1.4,1.73.73,0,1.3-.52,1.3-1.32,0-2.11-3.52-.89-3.52-3.63,0-.69.29-2.06,2.18-2.06,1.42,0,2.07.71,2.09,2.08h-.92Z"/>
  </g>
  <rect class="st0" x="67.82" y="4.22" width="4.37" height="37.79"/>
  <polygon class="st3" points="80.43 14.67 80.32 14.67 77.57 42 80.43 42 81.69 42 81.85 42 81.85 14.67 80.43 14.67"/>
</svg>